<?xml version="1.0" encoding="UTF-8" standalone="no"?><!DOCTYPE svg PUBLIC "-//W3C//DTD SVG 1.1//EN" "http://www.w3.org/Graphics/SVG/1.1/DTD/svg11.dtd"><svg width="100%" height="100%" viewBox="0 0 2917 2917" version="1.1" xmlns="http://www.w3.org/2000/svg" xmlns:xlink="http://www.w3.org/1999/xlink" xml:space="preserve" xmlns:serif="http://www.serif.com/" style="fill-rule:evenodd;clip-rule:evenodd;stroke-linejoin:round;stroke-miterlimit:2;"><g><path d="M1472.23,358.333c-32.21,0 -58.333,26.123 -58.333,58.334l-0,1276.42l-243.604,-244.612c-10.857,-11.263 -25.782,-17.708 -41.423,-17.871c-15.641,-0.147 -30.696,5.989 -41.779,17.024c-11.067,11.051 -17.252,26.091 -17.139,41.734c0.114,15.657 6.511,30.599 17.741,41.487l343.229,344.629l0.017,0c5.42,5.339 11.816,9.603 18.815,12.598c14.387,6.022 30.566,6.022 44.954,-0c6.998,-2.995 13.395,-7.259 18.815,-12.598l343.229,-344.629l0.016,0c11.231,-10.889 17.627,-25.83 17.741,-41.487c0.114,-15.642 -6.071,-30.681 -17.139,-41.734c-11.084,-11.035 -26.139,-17.171 -41.779,-17.024c-15.641,0.162 -30.566,6.608 -41.422,17.871l-243.605,244.612l0,-1276.25c0.049,-15.511 -6.087,-30.387 -17.024,-41.357c-10.954,-10.97 -25.814,-17.139 -41.309,-17.139l-0.001,-0.004Z" style="fill:white;fill-rule:nonzero;"/><path d="M2561.1,1349.45c-32.21,-0 -58.333,26.107 -58.333,58.333l-0,574.917c-0.049,99.25 -39.502,194.45 -109.667,264.65c-70.167,70.216 -165.333,109.716 -264.6,109.846l-1311.42,-0c-99.575,-0.131 -195.02,-39.747 -265.412,-110.188c-70.396,-70.425 -109.963,-165.9 -110.008,-265.479l-0,-575.083c-0,-32.211 -26.123,-58.334 -58.334,-58.334c-32.226,0 -58.333,26.123 -58.333,58.334l-0,575.083c0.098,130.5 51.971,255.633 144.221,347.933c92.271,92.3 217.366,144.238 347.866,144.4l1311.42,0c130.175,-0.162 254.963,-51.954 346.988,-144.008c92.041,-92.042 143.8,-216.829 143.946,-347.004l-0,-575.167c-0,-15.462 -6.137,-30.289 -17.09,-41.227c-10.938,-10.921 -25.782,-17.057 -41.244,-17.025l0,0.019Z" style="fill:white;fill-rule:nonzero;"/></g></svg>