<?xml version="1.0" encoding="UTF-8" standalone="no"?><!DOCTYPE svg PUBLIC "-//W3C//DTD SVG 1.1//EN" "http://www.w3.org/Graphics/SVG/1.1/DTD/svg11.dtd"><svg width="100%" height="100%" viewBox="0 0 2917 2917" version="1.1" xmlns="http://www.w3.org/2000/svg" xmlns:xlink="http://www.w3.org/1999/xlink" xml:space="preserve" xmlns:serif="http://www.serif.com/" style="fill-rule:evenodd;clip-rule:evenodd;stroke-linejoin:round;stroke-miterlimit:2;"><g><path d="M2474.87,442.614c-244.459,-244.918 -569.113,-393.374 -914.318,-418.11c-345.163,-24.712 -687.675,75.968 -964.552,283.544c-276.878,207.576 -469.554,508.133 -542.564,846.36c-73.034,338.269 -21.549,691.549 145.017,994.835c9.468,16.321 11.944,35.762 6.855,53.94l-145.499,484.131c-9.491,31.726 -7.198,65.815 6.511,95.962c13.708,30.145 37.87,54.307 68.016,68.017c30.145,13.708 64.231,16.001 95.962,6.51l484.201,-145.499c18.157,-5.066 37.573,-2.613 53.872,6.855c211.197,116.754 448.556,178.004 689.846,178.004c357.43,0.253 702.112,-132.752 966.725,-373.039c264.612,-240.287 430.146,-570.58 464.23,-926.407c20.403,-211.174 -6.166,-424.278 -77.805,-624.002c-71.637,-199.689 -186.578,-381.091 -336.549,-531.173l0.052,0.072Zm-334.665,973.942l-154.049,142.195l0,0.023c-24.322,22.442 -33.148,57.103 -22.511,88.438l63.474,186.649l-0.023,0c22.741,67.354 11.737,141.532 -29.572,199.413c-41.286,57.86 -107.881,92.359 -178.967,92.729c-41.606,-0.115 -82.341,-11.967 -117.488,-34.225l-178.832,-112.007c-27.921,-17.514 -63.497,-17.032 -90.939,1.215l-161.314,107.488l0.023,-0c-50.41,33.63 -112.394,45.023 -171.449,31.566c-59.05,-13.456 -109.965,-50.616 -140.822,-102.746c-30.832,-52.129 -38.902,-114.642 -22.259,-172.893l56.141,-196.502c8.94,-30.65 -0.528,-63.727 -24.3,-85.024l-159.87,-144.536c-42.914,-38.925 -68.774,-93.163 -72.025,-150.98c-3.255,-57.837 16.368,-114.642 54.628,-158.127c38.26,-43.487 92.107,-70.171 149.877,-74.296l150.152,-10.614c29.434,-2.178 55.591,-19.646 68.861,-46.008l118.932,-237.928c24.575,-49.103 66.549,-87.295 117.758,-107.101c51.213,-19.806 107.97,-19.806 159.184,-0c51.213,19.806 93.21,57.998 117.758,107.101l118.932,237.928c13.25,26.225 39.177,43.693 68.474,46.077l146.115,10.545l-0.023,0c57.539,4.15 111.18,30.673 149.396,73.885c38.214,43.212 57.974,99.672 55.063,157.283c-2.911,57.631 -28.288,111.801 -70.675,150.933l0.35,-0.481Z" style="fill:white;fill-rule:nonzero;"/><path d="M1996.52,1170.96l-146.05,-10.545l0.023,-0c-77.641,-5.754 -146.532,-51.854 -181.514,-121.385l-118.932,-237.858c-14.167,-28.38 -43.143,-46.306 -74.871,-46.306c-31.703,-0 -60.704,17.926 -74.871,46.306l-118.931,237.793c-34.959,69.595 -103.938,115.698 -181.626,121.385l-150.223,10.614c-33.445,2.407 -62.218,24.506 -73.174,56.186c-10.935,31.704 -1.926,66.872 22.923,89.378l159.942,144.812c30.672,27.555 52.954,63.222 64.278,102.882c11.301,39.681 11.186,81.725 -0.344,121.337l-56.004,196.438c-9.696,33.744 2.705,69.941 31.062,90.64c28.38,20.7 66.638,21.456 95.798,1.925l161.315,-107.488c35.394,-23.634 76.842,-36.541 119.366,-37.205c42.547,-0.642 84.384,10.98 120.463,33.491l178.832,112.142l0.023,0c30.008,18.844 68.609,16.735 96.397,-5.272c27.784,-21.984 38.696,-59.096 27.233,-92.612l-63.409,-186.508l0.023,0c-13.732,-40.437 -15.451,-83.99 -4.929,-125.369c10.499,-41.378 32.781,-78.838 64.143,-107.835l153.568,-142.265c24.529,-22.626 33.263,-57.676 22.237,-89.149c-11.05,-31.497 -39.75,-53.413 -73.034,-55.796l0.286,0.264Z" style="fill:white;fill-rule:nonzero;"/></g></svg>