<?xml version="1.0" encoding="UTF-8" standalone="no"?><!DOCTYPE svg PUBLIC "-//W3C//DTD SVG 1.1//EN" "http://www.w3.org/Graphics/SVG/1.1/DTD/svg11.dtd"><svg width="100%" height="100%" viewBox="0 0 400 400" version="1.1" xmlns="http://www.w3.org/2000/svg" xmlns:xlink="http://www.w3.org/1999/xlink" xml:space="preserve" xmlns:serif="http://www.serif.com/" style="fill-rule:evenodd;clip-rule:evenodd;stroke-linejoin:round;stroke-miterlimit:2;"><path d="M200,5c-110.442,0 -200,89.538 -200,200c0,88.362 57.306,163.33 136.772,189.776c9.996,1.851 13.665,-4.338 13.665,-9.621c0,-4.766 -0.185,-20.524 -0.271,-37.236c-55.641,12.099 -67.381,-23.597 -67.381,-23.597c-9.098,-23.114 -22.207,-29.264 -22.207,-29.264c-18.146,-12.413 1.368,-12.158 1.368,-12.158c20.084,1.41 30.658,20.613 30.658,20.613c17.838,30.572 46.788,21.733 58.201,16.622c1.798,-12.923 6.978,-21.749 12.698,-26.743c-44.423,-5.054 -91.121,-22.207 -91.121,-98.841c-0,-21.832 7.813,-39.677 20.607,-53.683c-2.077,-5.037 -8.923,-25.379 1.94,-52.928c0,0 16.795,-5.372 55.011,20.504c15.954,-4.431 33.063,-6.653 50.06,-6.733c16.997,0.08 34.119,2.302 50.103,6.733c38.173,-25.876 54.944,-20.504 54.944,-20.504c10.887,27.549 4.041,47.891 1.964,52.928c12.824,14.006 20.581,31.851 20.581,53.683c-0,76.82 -46.788,93.73 -91.323,98.682c7.173,6.206 13.565,18.378 13.565,37.037c0,26.76 -0.228,48.298 -0.228,54.885c-0,5.326 3.597,11.559 13.734,9.598c79.427,-26.476 136.66,-101.418 136.66,-189.753c-0,-110.462 -89.544,-200 -200,-200" style="fill:#23a6d5;"/><path d="M75.751,292.154c-0.44,0.997 -2.003,1.295 -3.427,0.612c-1.454,-0.655 -2.266,-2.01 -1.795,-3.007c0.43,-1.02 1.993,-1.305 3.444,-0.622c1.451,0.652 2.279,2.02 1.778,3.017" style="fill:#23a6d5;fill-rule:nonzero;"/><path d="M83.853,301.19c-0.953,0.885 -2.821,0.474 -4.083,-0.924c-1.312,-1.394 -1.553,-3.262 -0.586,-4.156c0.983,-0.884 2.792,-0.47 4.1,0.924c1.311,1.411 1.566,3.259 0.569,4.156" style="fill:#23a6d5;fill-rule:nonzero;"/><path d="M91.739,312.707c-1.226,0.855 -3.233,0.057 -4.471,-1.722c-1.226,-1.782 -1.226,-3.914 0.029,-4.769c1.239,-0.854 3.216,-0.083 4.472,1.679c1.222,1.809 1.222,3.941 -0.03,4.812" style="fill:#23a6d5;fill-rule:nonzero;"/><path d="M102.541,323.837c-1.096,1.209 -3.431,0.884 -5.14,-0.769c-1.749,-1.609 -2.235,-3.898 -1.139,-5.106c1.113,-1.213 3.461,-0.872 5.183,0.765c1.735,1.609 2.262,3.914 1.096,5.11" style="fill:#23a6d5;fill-rule:nonzero;"/><path d="M117.445,330.299c-0.487,1.566 -2.732,2.275 -4.998,1.609c-2.262,-0.685 -3.742,-2.517 -3.285,-4.1c0.47,-1.576 2.729,-2.318 5.011,-1.606c2.258,0.682 3.742,2.504 3.272,4.097" style="fill:#23a6d5;fill-rule:nonzero;"/><path d="M133.814,331.496c0.056,1.649 -1.865,3.017 -4.243,3.047c-2.391,0.053 -4.329,-1.282 -4.355,-2.905c-0,-1.666 1.881,-3.017 4.269,-3.06c2.378,-0.047 4.329,1.282 4.329,2.918" style="fill:#23a6d5;fill-rule:nonzero;"/><path d="M149.044,328.905c0.285,1.606 -1.368,3.259 -3.729,3.699c-2.322,0.427 -4.471,-0.569 -4.766,-2.163c-0.288,-1.649 1.391,-3.302 3.712,-3.729c2.365,-0.41 4.481,0.557 4.783,2.193" style="fill:#23a6d5;fill-rule:nonzero;"/></svg>