<?xml version="1.0" encoding="UTF-8" standalone="no"?><!DOCTYPE svg PUBLIC "-//W3C//DTD SVG 1.1//EN" "http://www.w3.org/Graphics/SVG/1.1/DTD/svg11.dtd"><svg width="100%" height="100%" viewBox="0 0 100 100" version="1.1" xmlns="http://www.w3.org/2000/svg" xmlns:xlink="http://www.w3.org/1999/xlink" xml:space="preserve" xmlns:serif="http://www.serif.com/" style="fill-rule:evenodd;clip-rule:evenodd;stroke-linejoin:round;stroke-miterlimit:2;"><path d="M79.167,0l-58.334,0c-11.504,0 -20.833,9.329 -20.833,20.833l0,58.334c0,11.504 9.329,20.833 20.833,20.833l58.334,0c11.508,0 20.833,-9.329 20.833,-20.833l0,-58.334c0,-11.504 -9.325,-20.833 -20.833,-20.833Zm-45.834,79.167l-12.5,-0l0,-45.834l12.5,0l0,45.834Zm-6.25,-51.117c-4.025,0 -7.291,-3.292 -7.291,-7.35c-0,-4.058 3.266,-7.35 7.291,-7.35c4.025,0 7.292,3.292 7.292,7.35c0,4.058 -3.262,7.35 -7.292,7.35Zm56.25,51.117l-12.5,-0l0,-23.35c0,-14.034 -16.666,-12.971 -16.666,-0l-0,23.35l-12.5,-0l-0,-45.834l12.5,0l-0,7.355c5.816,-10.775 29.166,-11.571 29.166,10.316l0,28.163Z" style="fill:#23a6d5;fill-rule:nonzero;"/></svg>