<?xml version="1.0" standalone="no"?>
<!DOCTYPE svg PUBLIC "-//W3C//DTD SVG 20010904//EN"
 "http://www.w3.org/TR/2001/REC-SVG-20010904/DTD/svg10.dtd">
<svg version="1.0" xmlns="http://www.w3.org/2000/svg"
 width="400.000000pt" height="400.000000pt" viewBox="0 0 400.000000 400.000000"
 preserveAspectRatio="xMidYMid meet">

<g transform="translate(0.000000,400.000000) scale(0.100000,-0.100000)"
fill="white" stroke="none">
<path d="M1850 3994 c-14 -2 -56 -9 -95 -15 -120 -18 -265 -66 -391 -129 -351
-173 -604 -469 -735 -861 -48 -144 -69 -261 -76 -425 -11 -285 39 -521 164
-769 40 -79 1047 -1630 1112 -1712 42 -53 96 -78 171 -78 75 0 129 25 171 78
65 82 1072 1633 1112 1712 125 248 175 484 164 769 -9 223 -53 401 -150 609
-196 419 -563 706 -1027 804 -64 13 -370 26 -420 17z m397 -169 c238 -45 484
-176 658 -350 177 -177 319 -449 372 -713 25 -124 25 -415 0 -532 -28 -130
-72 -256 -125 -360 -39 -79 -1009 -1572 -1088 -1677 -36 -47 -92 -47 -128 0
-79 105 -1049 1598 -1088 1677 -53 104 -97 230 -125 360 -25 117 -25 408 0
532 53 264 195 536 372 713 211 212 501 344 805 369 74 6 270 -5 347 -19z"/>
<path d="M1844 3296 c-399 -91 -660 -495 -578 -894 33 -161 93 -271 214 -392
96 -96 178 -148 295 -187 72 -25 94 -27 225 -27 131 0 153 2 225 27 117 39
199 91 295 187 121 121 181 231 214 392 76 372 -144 751 -509 874 -99 33 -281
43 -381 20z m280 -151 c220 -47 398 -222 456 -451 81 -317 -118 -653 -435
-734 -321 -82 -641 115 -725 446 -95 372 193 749 575 753 33 0 91 -6 129 -14z"/>
</g>
</svg>
