<?xml version="1.0" standalone="no"?>
<!DOCTYPE svg PUBLIC "-//W3C//DTD SVG 20010904//EN"
 "http://www.w3.org/TR/2001/REC-SVG-20010904/DTD/svg10.dtd">
<svg version="1.0" xmlns="http://www.w3.org/2000/svg"
 width="400.000000pt" height="400.000000pt" viewBox="0 0 400.000000 400.000000"
 preserveAspectRatio="xMidYMid meet">

<g transform="translate(0.000000,400.000000) scale(0.100000,-0.100000)"
fill="white" stroke="none">
<path d="M254 3305 c-93 -29 -177 -105 -221 -200 l-28 -60 0 -1045 0 -1045 28
-60 c45 -97 129 -171 226 -201 69 -21 3413 -21 3482 0 97 30 181 104 226 201
l28 60 0 1045 0 1045 -28 60 c-45 97 -129 171 -226 201 -66 20 -3423 19 -3487
-1z m3454 -189 c38 -20 80 -66 86 -96 6 -24 -38 -52 -885 -570 -491 -300 -895
-546 -899 -548 -4 -1 -412 245 -906 548 -985 603 -925 561 -866 623 55 60 -57
56 1765 57 1425 0 1682 -2 1705 -14z m-2635 -870 c480 -294 884 -540 899 -546
15 -7 37 -10 50 -7 13 4 419 249 903 546 l880 539 3 -886 c2 -882 2 -886 -19
-929 -14 -29 -35 -52 -63 -68 l-43 -25 -1683 0 -1683 0 -43 25 c-28 16 -49 39
-63 68 -21 43 -21 50 -21 930 0 488 3 887 6 887 3 0 398 -240 877 -534z"/>
</g>
</svg>
